<svg height="2078" width="720" xmlns="http://www.w3.org/2000/svg">
<rect height="2078" fill="#555" width="720"></rect>
<text fill="#7f7" font-family="Courier New" font-size="12" xml:space="preserve">
<tspan x="10" y="26">26 megabytes installed</tspan>
<tspan x="10" y="42"></tspan>
<tspan x="10" y="58">node_modules</tspan>
<tspan x="10" y="74">└─┬ google-spreadsheet@2.0.3 </tspan>
<tspan x="10" y="90">  ├── async@1.5.2 </tspan>
<tspan x="10" y="106">  ├─┬ google-auth-library@0.9.10 </tspan>
<tspan x="10" y="122">  │ ├── async@1.4.2 </tspan>
<tspan x="10" y="138">  │ ├─┬ gtoken@1.2.2 </tspan>
<tspan x="10" y="154">  │ │ ├─┬ google-p12-pem@0.1.2 </tspan>
<tspan x="10" y="170">  │ │ │ └── node-forge@0.7.1 </tspan>
<tspan x="10" y="186">  │ │ └── mime@1.3.4 </tspan>
<tspan x="10" y="202">  │ ├─┬ jws@3.0.0 </tspan>
<tspan x="10" y="218">  │ │ ├─┬ base64url@1.0.6 </tspan>
<tspan x="10" y="234">  │ │ │ ├─┬ concat-stream@1.4.10 </tspan>
<tspan x="10" y="250">  │ │ │ │ ├─┬ readable-stream@1.1.14 </tspan>
<tspan x="10" y="266">  │ │ │ │ │ └── isarray@0.0.1 </tspan>
<tspan x="10" y="282">  │ │ │ │ └── typedarray@0.0.6 </tspan>
<tspan x="10" y="298">  │ │ │ └─┬ meow@2.0.0 </tspan>
<tspan x="10" y="314">  │ │ │   ├─┬ camelcase-keys@1.0.0 </tspan>
<tspan x="10" y="330">  │ │ │   │ ├── camelcase@1.2.1 </tspan>
<tspan x="10" y="346">  │ │ │   │ └── map-obj@1.0.1 </tspan>
<tspan x="10" y="362">  │ │ │   ├─┬ indent-string@1.2.2 </tspan>
<tspan x="10" y="378">  │ │ │   │ ├── get-stdin@4.0.1 </tspan>
<tspan x="10" y="394">  │ │ │   │ └─┬ repeating@1.1.3 </tspan>
<tspan x="10" y="410">  │ │ │   │   └─┬ is-finite@1.0.2 </tspan>
<tspan x="10" y="426">  │ │ │   │     └── number-is-nan@1.0.1 </tspan>
<tspan x="10" y="442">  │ │ │   ├── minimist@1.2.0 </tspan>
<tspan x="10" y="458">  │ │ │   └── object-assign@1.0.0 </tspan>
<tspan x="10" y="474">  │ │ └─┬ jwa@1.0.2 </tspan>
<tspan x="10" y="490">  │ │   ├── base64url@0.0.6 </tspan>
<tspan x="10" y="506">  │ │   ├── buffer-equal-constant-time@1.0.1 </tspan>
<tspan x="10" y="522">  │ │   └─┬ ecdsa-sig-formatter@1.0.9 </tspan>
<tspan x="10" y="538">  │ │     └── base64url@2.0.0 </tspan>
<tspan x="10" y="554">  │ ├── lodash.noop@3.0.1 </tspan>
<tspan x="10" y="570">  │ ├─┬ request@2.74.0 </tspan>
<tspan x="10" y="586">  │ │ ├─┬ bl@1.1.2 </tspan>
<tspan x="10" y="602">  │ │ │ └─┬ readable-stream@2.0.6 </tspan>
<tspan x="10" y="618">  │ │ │   ├── core-util-is@1.0.2 </tspan>
<tspan x="10" y="634">  │ │ │   ├── inherits@2.0.3 </tspan>
<tspan x="10" y="650">  │ │ │   ├── isarray@1.0.0 </tspan>
<tspan x="10" y="666">  │ │ │   ├── process-nextick-args@1.0.7 </tspan>
<tspan x="10" y="682">  │ │ │   ├── string_decoder@0.10.31 </tspan>
<tspan x="10" y="698">  │ │ │   └── util-deprecate@1.0.2 </tspan>
<tspan x="10" y="714">  │ │ ├── caseless@0.11.0 </tspan>
<tspan x="10" y="730">  │ │ ├─┬ form-data@1.0.1 </tspan>
<tspan x="10" y="746">  │ │ │ └─┬ async@2.3.0 </tspan>
<tspan x="10" y="762">  │ │ │   └── lodash@4.17.4 </tspan>
<tspan x="10" y="778">  │ │ ├─┬ har-validator@2.0.6 </tspan>
<tspan x="10" y="794">  │ │ │ ├─┬ chalk@1.1.3 </tspan>
<tspan x="10" y="810">  │ │ │ │ ├── ansi-styles@2.2.1 </tspan>
<tspan x="10" y="826">  │ │ │ │ ├── escape-string-regexp@1.0.5 </tspan>
<tspan x="10" y="842">  │ │ │ │ ├─┬ has-ansi@2.0.0 </tspan>
<tspan x="10" y="858">  │ │ │ │ │ └── ansi-regex@2.1.1 </tspan>
<tspan x="10" y="874">  │ │ │ │ ├── strip-ansi@3.0.1 </tspan>
<tspan x="10" y="890">  │ │ │ │ └── supports-color@2.0.0 </tspan>
<tspan x="10" y="906">  │ │ │ ├─┬ commander@2.9.0 </tspan>
<tspan x="10" y="922">  │ │ │ │ └── graceful-readlink@1.0.1 </tspan>
<tspan x="10" y="938">  │ │ │ ├─┬ is-my-json-valid@2.16.0 </tspan>
<tspan x="10" y="954">  │ │ │ │ ├── generate-function@2.0.0 </tspan>
<tspan x="10" y="970">  │ │ │ │ ├─┬ generate-object-property@1.2.0 </tspan>
<tspan x="10" y="986">  │ │ │ │ │ └── is-property@1.0.2 </tspan>
<tspan x="10" y="1002">  │ │ │ │ ├── jsonpointer@4.0.1 </tspan>
<tspan x="10" y="1018">  │ │ │ │ └── xtend@4.0.1 </tspan>
<tspan x="10" y="1034">  │ │ │ └─┬ pinkie-promise@2.0.1 </tspan>
<tspan x="10" y="1050">  │ │ │   └── pinkie@2.0.4 </tspan>
<tspan x="10" y="1066">  │ │ ├── node-uuid@1.4.8 </tspan>
<tspan x="10" y="1082">  │ │ ├── qs@6.2.3 </tspan>
<tspan x="10" y="1098">  │ │ └── tunnel-agent@0.4.3 </tspan>
<tspan x="10" y="1114">  │ └── string-template@0.2.1 </tspan>
<tspan x="10" y="1130">  ├── lodash@3.10.1 </tspan>
<tspan x="10" y="1146">  ├─┬ request@2.81.0 </tspan>
<tspan x="10" y="1162">  │ ├── aws-sign2@0.6.0 </tspan>
<tspan x="10" y="1178">  │ ├── aws4@1.6.0 </tspan>
<tspan x="10" y="1194">  │ ├── caseless@0.12.0 </tspan>
<tspan x="10" y="1210">  │ ├─┬ combined-stream@1.0.5 </tspan>
<tspan x="10" y="1226">  │ │ └── delayed-stream@1.0.0 </tspan>
<tspan x="10" y="1242">  │ ├── extend@3.0.0 </tspan>
<tspan x="10" y="1258">  │ ├── forever-agent@0.6.1 </tspan>
<tspan x="10" y="1274">  │ ├─┬ form-data@2.1.4 </tspan>
<tspan x="10" y="1290">  │ │ └── asynckit@0.4.0 </tspan>
<tspan x="10" y="1306">  │ ├─┬ har-validator@4.2.1 </tspan>
<tspan x="10" y="1322">  │ │ ├─┬ ajv@4.11.7 </tspan>
<tspan x="10" y="1338">  │ │ │ ├── co@4.6.0 </tspan>
<tspan x="10" y="1354">  │ │ │ └─┬ json-stable-stringify@1.0.1 </tspan>
<tspan x="10" y="1370">  │ │ │   └── jsonify@0.0.0 </tspan>
<tspan x="10" y="1386">  │ │ └── har-schema@1.0.5 </tspan>
<tspan x="10" y="1402">  │ ├─┬ hawk@3.1.3 </tspan>
<tspan x="10" y="1418">  │ │ ├── boom@2.10.1 </tspan>
<tspan x="10" y="1434">  │ │ ├── cryptiles@2.0.5 </tspan>
<tspan x="10" y="1450">  │ │ ├── hoek@2.16.3 </tspan>
<tspan x="10" y="1466">  │ │ └── sntp@1.0.9 </tspan>
<tspan x="10" y="1482">  │ ├─┬ http-signature@1.1.1 </tspan>
<tspan x="10" y="1498">  │ │ ├── assert-plus@0.2.0 </tspan>
<tspan x="10" y="1514">  │ │ ├─┬ jsprim@1.4.0 </tspan>
<tspan x="10" y="1530">  │ │ │ ├── assert-plus@1.0.0 </tspan>
<tspan x="10" y="1546">  │ │ │ ├── extsprintf@1.0.2 </tspan>
<tspan x="10" y="1562">  │ │ │ ├── json-schema@0.2.3 </tspan>
<tspan x="10" y="1578">  │ │ │ └── verror@1.3.6 </tspan>
<tspan x="10" y="1594">  │ │ └─┬ sshpk@1.13.0 </tspan>
<tspan x="10" y="1610">  │ │   ├── asn1@0.2.3 </tspan>
<tspan x="10" y="1626">  │ │   ├── assert-plus@1.0.0 </tspan>
<tspan x="10" y="1642">  │ │   ├── bcrypt-pbkdf@1.0.1 </tspan>
<tspan x="10" y="1658">  │ │   ├─┬ dashdash@1.14.1 </tspan>
<tspan x="10" y="1674">  │ │   │ └── assert-plus@1.0.0 </tspan>
<tspan x="10" y="1690">  │ │   ├── ecc-jsbn@0.1.1 </tspan>
<tspan x="10" y="1706">  │ │   ├─┬ getpass@0.1.6 </tspan>
<tspan x="10" y="1722">  │ │   │ └── assert-plus@1.0.0 </tspan>
<tspan x="10" y="1738">  │ │   ├── jodid25519@1.0.2 </tspan>
<tspan x="10" y="1754">  │ │   ├── jsbn@0.1.1 </tspan>
<tspan x="10" y="1770">  │ │   └── tweetnacl@0.14.5 </tspan>
<tspan x="10" y="1786">  │ ├── is-typedarray@1.0.0 </tspan>
<tspan x="10" y="1802">  │ ├── isstream@0.1.2 </tspan>
<tspan x="10" y="1818">  │ ├── json-stringify-safe@5.0.1 </tspan>
<tspan x="10" y="1834">  │ ├─┬ mime-types@2.1.15 </tspan>
<tspan x="10" y="1850">  │ │ └── mime-db@1.27.0 </tspan>
<tspan x="10" y="1866">  │ ├── oauth-sign@0.8.2 </tspan>
<tspan x="10" y="1882">  │ ├── performance-now@0.2.0 </tspan>
<tspan x="10" y="1898">  │ ├── qs@6.4.0 </tspan>
<tspan x="10" y="1914">  │ ├── safe-buffer@5.0.1 </tspan>
<tspan x="10" y="1930">  │ ├── stringstream@0.0.5 </tspan>
<tspan x="10" y="1946">  │ ├─┬ tough-cookie@2.3.2 </tspan>
<tspan x="10" y="1962">  │ │ └── punycode@1.4.1 </tspan>
<tspan x="10" y="1978">  │ ├── tunnel-agent@0.6.0 </tspan>
<tspan x="10" y="1994">  │ └── uuid@3.0.1 </tspan>
<tspan x="10" y="2010">  └─┬ xml2js@0.4.17 </tspan>
<tspan x="10" y="2026">    ├── sax@1.2.2 </tspan>
<tspan x="10" y="2042">    └─┬ xmlbuilder@4.2.1 </tspan>
<tspan x="10" y="2058">      └── lodash@4.17.4</tspan>
</text>
</svg>
